<?xml version="1.0" standalone="no"?>
<!DOCTYPE svg PUBLIC "-//W3C//DTD SVG 20010904//EN"
 "http://www.w3.org/TR/2001/REC-SVG-20010904/DTD/svg10.dtd">
<svg version="1.0" xmlns="http://www.w3.org/2000/svg"
 width="108.000000pt" height="111.000000pt" viewBox="0 0 108.000000 111.000000"
 preserveAspectRatio="xMidYMid meet">

<g transform="translate(0.000000,111.000000) scale(0.100000,-0.100000)"
fill="#000000" stroke="none">
<path d="M466 915 c-23 -35 -20 -72 9 -100 48 -49 125 -16 125 54 0 49 -24 71
-77 71 -32 0 -44 -5 -57 -25z"/>
<path d="M322 908 c-21 -21 -14 -66 12 -83 50 -33 104 20 72 70 -18 27 -63 34
-84 13z"/>
<path d="M652 908 c-21 -21 -14 -66 12 -83 50 -33 104 20 72 70 -18 27 -63 34
-84 13z"/>
<path d="M217 893 c-4 -3 -7 -17 -7 -30 0 -19 5 -23 30 -23 27 0 30 3 30 30 0
25 -4 30 -23 30 -13 0 -27 -3 -30 -7z"/>
<path d="M784 885 c-10 -25 4 -45 30 -45 13 0 26 7 30 15 9 25 -5 45 -30 45
-14 0 -27 -7 -30 -15z"/>
<path d="M202 788 c-21 -21 -14 -66 13 -84 50 -32 103 22 70 72 -17 26 -62 33
-83 12z"/>
<path d="M772 788 c-21 -21 -14 -66 13 -84 52 -34 111 31 70 76 -20 22 -65 26
-83 8z"/>
<path d="M353 744 c-15 -39 38 -67 60 -32 8 12 7 21 -2 32 -17 21 -50 20 -58
0z"/>
<path d="M490 740 c-11 -11 -20 -28 -20 -38 0 -24 31 -52 58 -52 47 0 69 61
34 93 -25 22 -48 21 -72 -3z"/>
<path d="M647 754 c-13 -13 -7 -52 8 -58 27 -10 46 5 43 33 -3 26 -35 41 -51
25z"/>
<path d="M193 643 c-18 -12 -23 -25 -23 -58 0 -52 23 -75 73 -75 68 0 100 78
52 125 -28 29 -69 32 -102 8z"/>
<path d="M762 640 c-33 -31 -33 -85 0 -112 31 -27 82 -23 107 8 28 35 26 69
-4 99 -30 31 -73 32 -103 5z"/>
<path d="M370 620 c-11 -11 -20 -28 -20 -38 0 -24 31 -52 58 -52 47 0 69 61
34 93 -25 22 -48 21 -72 -3z"/>
<path d="M610 620 c-11 -11 -20 -28 -20 -38 0 -24 31 -52 58 -52 47 0 69 61
34 93 -25 22 -48 21 -72 -3z"/>
<path d="M505 604 c-18 -18 -16 -33 7 -47 35 -22 66 21 36 51 -16 16 -23 15
-43 -4z"/>
<path d="M490 500 c-11 -11 -20 -28 -20 -38 0 -24 31 -52 58 -52 47 0 69 61
34 93 -25 22 -48 21 -72 -3z"/>
<path d="M202 458 c-21 -21 -14 -66 13 -84 50 -32 103 22 70 72 -17 26 -62 33
-83 12z"/>
<path d="M354 455 c-10 -25 4 -45 30 -45 25 0 39 20 30 45 -4 8 -17 15 -30 15
-14 0 -27 -7 -30 -15z"/>
<path d="M642 443 c2 -22 8 -28 28 -28 20 0 26 6 28 28 3 24 0 27 -28 27 -28
0 -31 -3 -28 -27z"/>
<path d="M772 458 c-21 -21 -14 -66 13 -84 52 -34 111 31 70 76 -20 22 -65 26
-83 8z"/>
<path d="M500 368 c-53 -20 -66 -83 -25 -123 30 -30 64 -32 99 -4 18 14 26 30
26 53 0 60 -46 94 -100 74z"/>
<path d="M322 338 c-18 -18 -14 -63 8 -83 45 -41 110 18 76 70 -18 27 -63 34
-84 13z"/>
<path d="M652 338 c-18 -18 -14 -63 8 -83 45 -41 110 18 76 70 -18 27 -63 34
-84 13z"/>
<path d="M217 324 c-24 -24 13 -72 42 -55 20 13 9 56 -14 59 -12 2 -24 0 -28
-4z"/>
<path d="M787 323 c-12 -11 -8 -40 7 -52 28 -23 68 17 45 45 -12 15 -41 19
-52 7z"/>
</g>
</svg>
